<svg xmlns="http://www.w3.org/2000/svg" version="1.1" xmlns:xlink="http://www.w3.org/1999/xlink" xmlns:svgjs="http://svgjs.dev/svgjs" width="1000" height="310" viewBox="0 0 1000 310"><g transform="matrix(1,0,0,1,-0.6060606060606233,0.20004643917911835)"><svg viewBox="0 0 396 123" data-background-color="#ffffff" preserveAspectRatio="xMidYMid meet" height="310" width="1000" xmlns="http://www.w3.org/2000/svg" xmlns:xlink="http://www.w3.org/1999/xlink"><g id="tight-bounds" transform="matrix(1,0,0,1,0.2400000000000091,-0.07937326457752647)"><svg viewBox="0 0 395.52 123.15874652915508" height="123.15874652915508" width="395.52"><g><svg viewBox="0 0 395.52 123.15874652915508" height="123.15874652915508" width="395.52"><g><svg viewBox="0 0 395.52 123.15874652915508" height="123.15874652915508" width="395.52"><g id="textblocktransform"><svg viewBox="0 0 395.52 123.15874652915508" height="123.15874652915508" width="395.52" id="textblock"><g><svg viewBox="0 0 395.52 123.15874652915508" height="123.15874652915508" width="395.52"><g transform="matrix(1,0,0,1,0,0)"><svg width="395.52" viewBox="5.739999771118164 -37.84000015258789 123.09000396728516 38.33000183105469" height="123.15874652915508" data-palette-color="#233565"><path d="M5.74 0L5.74-37.35 9.89-37.35 9.89-3.59 24.68-3.59 24.68 0 5.74 0ZM44.6 0.49L43.09 0.49Q34.4 0.49 31.61-4.98L31.61-4.98Q29.98-8.15 29.68-13.45L29.68-13.45Q29.56-15.94 29.56-18.87 29.56-21.8 29.73-24.43 29.9-27.05 30.41-29.17 30.91-31.3 31.82-32.92 32.74-34.55 34.23-35.64L34.23-35.64Q37.3-37.84 43.09-37.84L43.09-37.84 44.6-37.84Q53.66-37.84 56.2-32.96L56.2-32.96Q57.79-29.91 57.98-24.46L57.98-24.46Q58.08-21.8 58.08-18.84 58.08-15.87 57.93-13.37 57.79-10.86 57.32-8.74 56.86-6.62 55.97-4.91 55.08-3.2 53.56-2L53.56-2Q50.44 0.49 44.6 0.49L44.6 0.49ZM43.09-3.03L44.55-3.03Q47.24-3.03 49.01-3.61 50.78-4.2 51.8-5.66L51.8-5.66Q53.71-8.37 53.71-16.06L53.71-16.06 53.71-18.7Q53.71-22.39 53.51-25.27 53.32-28.15 52.46-30.13L52.46-30.13Q50.71-34.23 44.85-34.23L44.85-34.23 42.8-34.23Q36.84-34.23 35.18-30.4L35.18-30.4Q34.13-27.95 34.03-24.63 33.93-21.31 33.93-18.7L33.93-18.7 33.93-16.06Q33.93-8.86 36.08-5.91L36.08-5.91Q38.16-3.03 43.09-3.03L43.09-3.03ZM91.91-36.06L90.94-32.28Q85.05-34.33 79.63-34.33L79.63-34.33Q74.04-34.33 72.36-29.74L72.36-29.74Q71.36-27.03 71.25-23.57 71.14-20.12 71.14-17.6L71.14-17.6 71.14-15.19Q71.14-7.4 73.75-4.86L73.75-4.86Q75.31-3.34 77.92-3.08L77.92-3.08Q79.15-2.93 80.44-2.93 81.73-2.93 82.94-3.06 84.15-3.2 85.25-3.42L85.25-3.42Q87.47-3.86 88.57-4.39L88.57-4.39 88.57-15.92 81.03-15.92 81.03-19.29 92.65-19.29 92.65-2.56Q90.35-0.83 84.52 0.15L84.52 0.15Q82.49 0.49 79.9 0.49 77.31 0.49 75.15-0.04 72.99-0.56 71.49-1.57 69.99-2.59 69.06-4.1 68.13-5.62 67.62-7.59L67.62-7.59Q66.79-10.91 66.79-15.78 66.79-20.65 66.96-23.47 67.13-26.29 67.63-28.58 68.13-30.86 69.04-32.59 69.94-34.33 71.41-35.5L71.41-35.5Q74.38-37.84 79.9-37.84L79.9-37.84Q86.2-37.84 90.67-36.45L90.67-36.45 91.91-36.06ZM115.35 0.49L113.84 0.49Q105.14 0.49 102.36-4.98L102.36-4.98Q100.72-8.15 100.43-13.45L100.43-13.45Q100.31-15.94 100.31-18.87 100.31-21.8 100.48-24.43 100.65-27.05 101.15-29.17 101.65-31.3 102.57-32.92 103.48-34.55 104.97-35.64L104.97-35.64Q108.05-37.84 113.84-37.84L113.84-37.84 115.35-37.84Q124.41-37.84 126.95-32.96L126.95-32.96Q128.53-29.91 128.73-24.46L128.73-24.46Q128.83-21.8 128.83-18.84 128.83-15.87 128.68-13.37 128.53-10.86 128.07-8.74 127.6-6.62 126.71-4.91 125.82-3.2 124.31-2L124.31-2Q121.18 0.49 115.35 0.49L115.35 0.49ZM113.84-3.03L115.3-3.03Q117.99-3.03 119.76-3.61 121.53-4.2 122.55-5.66L122.55-5.66Q124.46-8.37 124.46-16.06L124.46-16.06 124.46-18.7Q124.46-22.39 124.26-25.27 124.06-28.15 123.21-30.13L123.21-30.13Q121.45-34.23 115.59-34.23L115.59-34.23 113.54-34.23Q107.59-34.23 105.93-30.4L105.93-30.4Q104.88-27.95 104.78-24.63 104.68-21.31 104.68-18.7L104.68-18.7 104.68-16.06Q104.68-8.86 106.83-5.91L106.83-5.91Q108.9-3.03 113.84-3.03L113.84-3.03Z" opacity="1" transform="matrix(1,0,0,1,0,0)" fill="#233565" class="wordmark-text-0" data-fill-palette-color="primary" id="text-0"></path></svg></g></svg></g></svg></g></svg></g></svg></g><defs></defs></svg><rect width="395.52" height="123.15874652915508" fill="none" stroke="none" visibility="hidden"></rect></g></svg></g></svg>